<svg xmlns="http://www.w3.org/2000/svg" viewBox="0 0 3333 3333" shape-rendering="geometricPrecision" text-rendering="geometricPrecision" image-rendering="optimizeQuality" fill-rule="evenodd" clip-rule="evenodd"><path d="M1667 0c460 0 877 187 1179 488 302 302 488 718 488 1179 0 460-187 877-488 1179-302 302-718 488-1179 488-460 0-877-187-1179-488C186 2544 0 2128 0 1667c0-460 187-877 488-1179C790 186 1206 0 1667 0zm108 1558v397c0 101-1 159 9 187 11 28 37 58 66 75 38 23 82 34 132 34 88 0 140-12 227-69v261c-74 35-139 55-199 69s-125 21-195 21c-79 0-126-10-187-30s-113-49-156-86-73-77-90-118c-17-42-25-102-25-182v-609h-233v-246c68-22 144-54 193-95 49-42 88-91 117-149 30-58 50-132 61-221h280v434h434v326h-434zm985-985c-280-280-666-453-1093-453S853 293 574 573c-280 280-453 666-453 1093s173 814 453 1093c280 280 666 453 1093 453s814-173 1093-453c280-280 453-666 453-1093s-173-814-453-1093z" fill-rule="nonzero"/></svg>